<?xml version="1.0" standalone="no"?>
<!DOCTYPE svg PUBLIC "-//W3C//DTD SVG 1.1//EN" "http://www.w3.org/Graphics/SVG/1.1/DTD/svg11.dtd" >
<svg xmlns="http://www.w3.org/2000/svg">
<metadata>
This is a custom SVG webfont generated by Font Squirrel.
Copyright   : Typeface  your company 2006 All Rights Reserved
</metadata>
<defs>
<font id="AmsterdamGraffitiRegular" horiz-adv-x="1139" >
<font-face units-per-em="2048" ascent="1638" descent="-410" />
<missing-glyph horiz-adv-x="569" />
<glyph unicode=" "  horiz-adv-x="569" />
<glyph unicode="&#x09;" horiz-adv-x="569" />
<glyph unicode="&#xa0;" horiz-adv-x="569" />
<glyph unicode="!" horiz-adv-x="202" d="M0 924q0 59 80 76q81 0 88 -140q20 -153 20 -352v-116q0 -100 -80 -100v-4q-80 17 -80 80l-4 24v148q0 161 -24 384zM40 96v52q8 92 80 92q73 0 84 -128v-16q-11 -96 -84 -96q-67 0 -80 96z" />
<glyph unicode="&#x22;" horiz-adv-x="382" d="M-15 1076q0 60 84 80q81 0 104 -184v-60q0 -62 -80 -76q-84 0 -84 144zM209 934v4q30 188 60 188q18 16 44 16q88 -19 88 -84q-30 -200 -88 -200l-24 -4q-80 10 -80 80z" />
<glyph unicode="#" horiz-adv-x="914" d="M0 188q15 76 76 76l44 -4q100 14 100 40l36 212l-4 4l-100 -8h-4q-92 7 -92 60l-4 4l-4 12q0 92 208 92l36 8q39 212 120 212h4q63 0 72 -76l-20 -116q142 16 284 16q48 224 128 224h4q59 0 76 -80q-26 -75 -44 -172q24 -17 24 -64q0 -44 -64 -76l-80 -224q32 -43 32 -68 q0 -67 -84 -80q-23 -48 -36 -136q-33 -44 -72 -44q-61 0 -84 72v4l16 96h-4q-204 -13 -204 -32q0 -128 -84 -128h-4q-72 0 -80 92v8h-4l-96 -16q-92 25 -92 92zM388 316h4q145 20 228 20q80 190 80 216v4q-180 0 -276 -28z" />
<glyph unicode="$" horiz-adv-x="719" d="M0 836q21 108 52 108q54 56 144 56l4 4h4l136 -20q24 124 96 124q68 0 76 -100v-4l-16 -88v-4q112 -98 112 -148q0 -59 -80 -76q-24 0 -72 40h-4l-8 -32v-4l124 -56q172 -97 172 -224q0 -146 -204 -212l-68 -8q-75 0 -164 32q-15 0 -56 -180q-33 -44 -72 -44 q-80 16 -80 80q16 108 56 232q-74 75 -100 112q-32 64 -48 148q0 63 88 76h8l4 -4h4l4 4v4q-76 48 -112 184zM148 616q39 -126 60 -128h4l24 80v8q-64 40 -88 40zM176 828q0 -46 108 -88q16 41 16 72v4q0 14 -80 20h-44v-8zM352 384q53 -28 104 -28q120 13 120 56 q0 54 -176 116q-11 0 -48 -144z" />
<glyph unicode="%" horiz-adv-x="869" d="M0 680q16 53 24 116q74 88 192 88h8q124 0 192 -116l16 -72q0 -109 -152 -200q-52 -20 -80 -20h-28q-66 8 -116 60q-56 65 -56 144zM8 72v4q0 61 340 412q96 115 196 268q53 60 88 60q80 -17 80 -80q0 -29 -72 -120q-76 -109 -76 -124h4l112 20q130 -26 184 -88 q36 -55 40 -108q0 -177 -224 -252q-21 -8 -84 -8q-79 0 -140 88q-32 57 -32 144l4 44h-4q-161 -160 -272 -300q-43 -32 -68 -32h-4q-72 11 -72 72zM164 660q8 -20 28 -20h8q38 0 68 60q0 18 -52 24q-52 0 -52 -40v-24zM588 256q0 -31 16 -36h28q57 0 108 72v24 q-25 32 -72 32q-68 0 -68 -44q-8 -1 -12 -28v-20z" />
<glyph unicode="&#x26;" horiz-adv-x="832" d="M-37 888q0 97 112 160l60 16q199 0 340 -184q44 -96 44 -180q0 -63 -52 -188q12 -18 168 -120h8q10 9 40 88q33 32 64 32q71 0 80 -88l-44 -124q0 -6 40 -28q28 -29 28 -64q0 -67 -84 -80l-76 28q-153 -152 -280 -152l-36 -4q-47 3 -124 44q-64 75 -64 152v12 q0 77 72 240q0 7 -168 140q-128 133 -128 300zM127 876q0 -139 196 -264h4q15 0 24 80v28q0 134 -180 176h-28l-16 -16v-4zM351 196q6 -28 16 -28h44q60 0 136 80q-21 27 -140 100h-8q-19 0 -48 -144v-8z" />
<glyph unicode="'" horiz-adv-x="249" d="M16 845q36 86 36 184q33 52 80 52q71 0 80 -92v-12q-12 -177 -84 -216l-32 -4q-71 0 -80 88z" />
<glyph unicode="(" horiz-adv-x="390" d="M0 604q0 417 172 500q20 24 56 24q60 0 72 -76q0 -34 -80 -112q-56 -94 -56 -332q0 -269 224 -408q15 -20 24 -56q-20 -84 -84 -84q-96 28 -204 164q-124 163 -124 380z" />
<glyph unicode=")" horiz-adv-x="375" d="M0 137q0 27 68 124q148 248 148 464q0 188 -152 304q-16 18 -16 56q0 57 88 68q54 0 176 -156q68 -129 68 -288q0 -285 -240 -632q-24 -16 -56 -24q-84 20 -84 84z" />
<glyph unicode="*" horiz-adv-x="797" d="M-37 681q0 88 208 88h124q14 0 24 44l-4 148q0 63 96 84q83 0 96 -156v-12l-16 -96v-12l8 -8h4q148 0 332 20q54 0 72 -80v-8q0 -80 -148 -80q-93 -16 -220 -16h-16q0 -104 152 -388v-16q0 -71 -88 -80q-56 0 -112 132q-91 167 -108 300l-4 4v4h-4q-128 -138 -180 -224 q-31 -16 -52 -16q-64 0 -76 80q0 54 128 204v8h-8l-132 -4q-59 0 -76 80z" />
<glyph unicode="+" horiz-adv-x="630" d="M-22 495q0 85 172 100l12 12l-20 204v12q11 96 76 96q88 0 88 -156q14 -120 24 -120q149 24 208 24q136 0 136 -96q0 -51 -72 -76l-48 4h-40q-160 -9 -160 -28l32 -212q0 -59 -88 -72q-63 0 -76 100l-32 152l-108 -20h-16l-4 -4q-80 17 -80 80h-4z" />
<glyph unicode="," horiz-adv-x="330" d="M0 84v4q0 62 120 84q56 26 56 88q13 84 80 84h4q84 0 84 -120q0 -58 -84 -148q-99 -76 -184 -76q-66 0 -76 84z" />
<glyph unicode="-" horiz-adv-x="457" d="M15 563q0 87 192 104q147 32 184 32q50 0 72 -80q0 -75 -120 -88l-248 -52q-64 0 -80 84z" />
<glyph unicode="." horiz-adv-x="202" d="M0 76q0 100 80 100h4q76 -12 76 -76q0 -100 -80 -100h-4q-76 12 -76 76z" />
<glyph unicode="/" horiz-adv-x="569" d="M7 252q0 112 368 492q92 112 140 192q29 16 60 16q56 0 72 -76v-8q-15 -98 -400 -504l-108 -168q-29 -24 -56 -24q-59 0 -76 80z" />
<glyph unicode="0" horiz-adv-x="772" d="M0 572q0 170 152 396q148 164 292 164q218 0 336 -256q44 -127 44 -276v-24q0 -259 -212 -480q-127 -96 -228 -96q-218 0 -336 256q-44 127 -44 276v24zM180 572q0 -321 152 -384l56 -8q100 0 200 176q56 89 56 236q0 275 -136 348l-68 12q-80 0 -172 -128 q-75 -121 -88 -220v-32z" />
<glyph unicode="1" horiz-adv-x="816" d="M-60 84q0 68 116 76q304 68 304 84v4q0 160 20 364h-8q-132 -118 -176 -124q-76 16 -76 76h-4q0 53 184 200q108 99 108 152q0 136 112 136q72 0 84 -92v-20q0 -40 -44 -128q-36 -437 -36 -536h4q245 48 336 48q84 -13 84 -80h4q-20 -84 -84 -84q-156 0 -724 -144 l-100 -16h-24q-67 0 -80 84z" />
<glyph unicode="2" horiz-adv-x="846" d="M-30 80q0 43 96 120q408 508 408 612v12h-12q-125 -19 -308 -176q-30 -64 -80 -64v-4q-76 16 -76 76h-4q8 73 76 132q235 193 408 204q104 0 148 -92l16 -60q0 -171 -248 -480l-108 -140v-12q0 8 456 12l4 4l-64 240q20 84 84 84q79 0 104 -164q32 -87 48 -204 q-15 -120 -108 -120l-36 -4q-664 -5 -664 -40q-27 -16 -56 -16q-80 10 -80 80h-4z" />
<glyph unicode="3" horiz-adv-x="802" d="M-22 888q12 92 80 92h4q22 0 72 -32l100 -8q98 0 480 92h4q67 0 80 -84q0 -61 -224 -252q-40 -32 -40 -40h8l192 36q100 -22 100 -92q-6 -87 -108 -332q-165 -268 -408 -268q-222 0 -280 232q19 80 80 80h4q65 0 100 -112q30 -36 92 -36h4q185 0 292 244l28 92v4h-8v4 q-317 -68 -544 -140h-4q-67 0 -80 84q0 66 172 148q150 102 260 192v8h-4q-153 -24 -208 -24q-212 0 -240 80z" />
<glyph unicode="4" horiz-adv-x="877" d="M-67 248v4q0 63 220 240q236 253 316 396q129 196 188 248l48 12q71 0 80 -92v-8l-52 -300l-36 -344h12l172 28q69 0 80 -84q0 -79 -152 -92l-140 -28l-36 -192q-27 -36 -68 -36q-80 0 -80 116l12 96q-328 0 -476 -44h-12q-59 0 -76 80zM265 376l4 -4h44q216 0 216 20 l40 340h-4l-192 -244z" />
<glyph unicode="5" horiz-adv-x="727" d="M-45 432q0 56 44 328q-44 32 -44 72v4q0 40 72 112q26 36 64 36l52 -20q166 0 468 76q41 20 60 20q84 -19 84 -84q0 -84 -216 -120q-114 -31 -372 -60l-36 -272v-4h4q416 100 480 100q116 -13 116 -72q8 0 8 -60q-43 -211 -152 -328q-164 -160 -320 -160q-172 0 -232 140 l-16 64q0 68 84 80q55 0 84 -92q24 -28 56 -28q161 0 268 168q44 77 44 108v4q-221 -40 -476 -108l-44 -4q-68 0 -80 100z" />
<glyph unicode="6" horiz-adv-x="615" d="M-37 304v28q0 252 308 660q42 48 104 48q55 0 68 -72v-4q0 -41 -68 -96q-164 -243 -164 -276v-4l124 16h36q142 0 284 -104q44 -47 44 -96v-12q0 -84 -228 -280q-154 -112 -244 -112q-164 0 -240 184q-17 34 -24 120zM127 340q0 -172 92 -172h12q111 14 288 220v8 q-78 44 -144 44h-12q-139 0 -236 -72v-28z" />
<glyph unicode="7" horiz-adv-x="876" d="M-38 910q0 69 96 84l460 -48h88q105 0 132 36q17 20 48 20h8q100 -11 100 -84q0 -63 -120 -120q-89 -125 -164 -328l4 -4h12l152 4q60 0 72 -88q0 -76 -156 -76l-156 -4q-47 -87 -160 -360q-32 -32 -64 -32q-84 20 -84 84q20 73 120 300v8h-100q-70 0 -96 60l-4 20 q0 73 100 84h172l144 312l-4 4h-36q-71 0 -368 36l-4 -4l24 -148q0 -60 -84 -80q-82 0 -96 168q0 33 -36 156z" />
<glyph unicode="8" horiz-adv-x="734" d="M-30 736q0 173 256 244l60 8q205 0 260 -232q16 -96 16 -140l-4 -176q208 -79 208 -140q9 0 12 -36v-4q0 -115 -380 -196l-48 -4q-187 0 -268 172q-24 60 -32 140q0 83 40 164q-120 107 -120 200zM134 748q0 -79 260 -224h4v76q0 224 -96 224q-112 0 -168 -76zM214 396 q0 -172 140 -172q52 0 176 40v12q-91 19 -140 64l-160 88h-4q-12 -4 -12 -24v-8z" />
<glyph unicode="9" horiz-adv-x="644" d="M-30 480q0 266 336 408q146 40 220 40q63 0 120 -72q40 -58 40 -116v-12q0 -224 -292 -644q-22 -76 -64 -76l-4 -4l-12 -4q-76 16 -76 76h-4q0 71 92 196l16 36h-148q-171 0 -216 132zM134 488q0 -16 72 -16h12q240 0 240 24q64 134 64 236v4q0 21 -12 24h-12 q-203 0 -340 -176q-24 -53 -24 -96z" />
<glyph unicode=":" horiz-adv-x="210" d="M0 687q8 116 80 116q84 0 84 -152l4 -4q-17 -80 -80 -80h-4q-80 0 -80 116zM38 287q0 58 80 72q78 0 88 -140l8 -60q0 -59 -80 -76q-82 0 -92 160z" />
<glyph unicode=";" horiz-adv-x="172" d="M-18 200q0 20 44 72l4 16v36l-28 60l-4 24q0 64 80 76q79 0 116 -148v-20q0 -139 -108 -200l-32 -4q-64 0 -72 88zM8 714l4 4v8q0 148 84 148h4q66 0 76 -84q0 -140 -44 -140q-18 -16 -44 -16q-60 0 -76 80h-4z" />
<glyph unicode="&#x37e;" horiz-adv-x="172" d="M-18 200q0 20 44 72l4 16v36l-28 60l-4 24q0 64 80 76q79 0 116 -148v-20q0 -139 -108 -200l-32 -4q-64 0 -72 88zM8 714l4 4v8q0 148 84 148h4q66 0 76 -84q0 -140 -44 -140q-18 -16 -44 -16q-60 0 -76 80h-4z" />
<glyph unicode="&#x3c;" horiz-adv-x="622" d="M-37 497v8q0 63 132 120q119 79 336 316q31 24 56 24h4q76 -14 76 -76v-4q0 -76 -340 -364q191 -115 380 -248q46 0 60 -80v-4q0 -59 -80 -76q-46 0 -304 184q-172 108 -288 136q-32 33 -32 64z" />
<glyph unicode="=" horiz-adv-x="674" d="M-45 611q0 84 156 84q52 12 316 12h24q192 0 224 -44l20 -52q0 -47 -76 -76l-176 8q-170 0 -396 -12h-4q-62 0 -84 52zM50 309q0 71 92 80q154 16 284 16h4q143 0 176 -28q44 -47 44 -72q0 -48 -92 -72l-128 8h-36l-264 -16q-65 0 -80 84z" />
<glyph unicode="&#x3e;" horiz-adv-x="674" d="M-30 166v8q0 56 128 124l292 232q-124 83 -212 156q-148 139 -148 204q0 62 80 76q40 0 116 -100q205 -199 356 -240q24 -11 96 -16q48 -36 48 -76q-15 -88 -88 -88v-4l-20 4h-20q-70 0 -400 -276q-119 -80 -148 -80q-80 12 -80 76z" />
<glyph unicode="?" horiz-adv-x="555" d="M-37 912q0 56 140 120q207 112 340 112q105 0 144 -92l4 -24q0 -64 -192 -248q-114 -155 -128 -216v-4l20 -4h20l84 4q68 -24 68 -80q0 -71 -96 -80l-64 -4h-32q-120 0 -164 104l-8 56q13 100 148 292q92 95 92 112q-82 -20 -260 -124l-32 -4q-84 13 -84 80zM259 260 q0 53 76 68h4q84 0 84 -132q20 -36 20 -72q0 -51 -80 -72q-68 0 -92 116q-12 54 -12 92z" />
<glyph unicode="@" horiz-adv-x="929" d="M-60 530l4 24v12l-4 4q23 179 68 260q79 156 320 244q122 36 172 36h16l4 4l4 -4h16q236 0 364 -176q48 -95 48 -204q0 -164 -152 -308q-35 -28 -112 -44l-4 4h-28q-60 0 -120 44h-4q-115 -48 -172 -48h-12q-126 0 -204 112q-24 49 -24 92v4q0 164 232 292q77 24 120 24 q63 -16 84 -36h8q39 48 72 48q80 -18 80 -76l-52 -284v-8h20q29 0 72 72q32 65 32 120q0 143 -116 184q-66 24 -120 24h-36q-161 0 -332 -140q-76 -104 -76 -252v-16q0 -198 204 -276l68 -8h8q232 0 436 172l40 12q84 -15 84 -84q0 -87 -320 -228q-126 -36 -224 -36h-8 q-275 0 -408 256q-48 125 -48 184zM284 574q18 -32 76 -32q69 0 148 68l28 124v4h-4l-24 -4l-44 4q-101 0 -176 -132l-4 -20v-12z" />
<glyph unicode="A" horiz-adv-x="749" d="M-52 136v8q51 168 172 444q56 218 140 424q36 48 84 48q83 0 240 -364l152 -276q140 0 140 -96q0 -33 -56 -72l48 -172q0 -64 -84 -80q-78 0 -108 172q-26 60 -36 60q-234 0 -508 -64q-18 -19 -28 -80q-16 -34 -68 -48q-68 0 -88 96zM204 356h4l348 40v4l-200 388h-8 l-80 -272z" />
<glyph unicode="B" horiz-adv-x="780" d="M-179 932q0 71 96 84l80 -20h52q269 40 324 40q79 0 88 -96v-4q0 -51 -88 -168v-8h4q191 72 284 72h32q152 -8 152 -88q6 0 12 -40q0 -14 -56 -116q-77 -177 -296 -464q-95 -124 -144 -124q-31 0 -60 24l-48 -4q-60 0 -120 180l-144 368l-116 280q-52 41 -52 84zM65 816 l48 -128h8q46 53 108 164v4q-164 -25 -164 -40zM201 480q83 -248 124 -312q10 0 112 136q216 310 216 356v4h-8q-132 0 -440 -176l-4 -4v-4z" />
<glyph unicode="C" horiz-adv-x="742" d="M-52 440q0 268 208 356q93 44 220 44q209 0 260 -96l4 -24q0 -60 -76 -72q-89 28 -184 28q-202 0 -248 -112q-20 -50 -20 -132q0 -187 132 -252q37 -16 72 -16q145 0 368 188q55 100 88 100l20 8q80 -20 80 -80v-4q0 -40 -80 -144q-198 -172 -368 -216l-100 -16 q-236 0 -352 260q-24 78 -24 180z" />
<glyph unicode="D" horiz-adv-x="809" d="M-45 692q0 66 100 100q372 -39 492 -80q236 -85 304 -160q10 0 20 -48q-28 -105 -188 -244q-189 -151 -424 -256l-24 -4q-84 17 -84 76l4 52q-168 420 -200 564zM147 612q117 -334 156 -404q118 50 324 212q40 50 40 64q-76 52 -288 104l-232 32v-8z" />
<glyph unicode="E" horiz-adv-x="727" d="M-75 850q41 131 119 131l50 -7q367 57 519 57h39q67 0 88 -65v-16q0 -68 -88 -76q-215 0 -558 -62q28 -204 35 -204q144 39 400 89q88 -21 88 -77q-30 -85 -100 -85q-331 -65 -384 -92q16 -281 53 -281l31 -8h43q36 0 342 131l161 58q81 -22 81 -81q0 -74 -188 -123 q-246 -108 -354 -138l-46 -8q-200 0 -250 169q-23 132 -50 535z" />
<glyph unicode="F" horiz-adv-x="787" d="M-37 704q0 79 128 96l328 -16l300 8q116 -13 116 -88q-20 -80 -72 -80l-40 4l-256 -8h-100l-208 12v-4l44 -204h12q63 0 292 52q68 0 80 -88q0 -79 -160 -92q0 -9 -196 -40v-4l28 -176q-12 -76 -76 -76h-4q-78 0 -96 148q-64 427 -116 544z" />
<glyph unicode="G" horiz-adv-x="817" d="M-52 544q0 146 152 332q115 124 368 124h28q173 0 284 -136l8 -32q0 -59 -80 -76q-29 0 -136 68q-23 12 -104 12q-254 0 -308 -156q-38 -60 -44 -112v-48q0 -112 112 -160l36 -4h8q195 0 372 128v12l-8 8l-120 -8q-108 22 -108 92q22 76 72 76l56 -4l188 16 q104 -28 104 -104l-20 -68q16 -34 16 -56q0 -20 -24 -68q-48 -254 -48 -328q-33 -52 -80 -52q-80 16 -80 80v4q0 73 20 180v8q-177 -80 -344 -80h-8q-188 0 -284 212q-28 86 -28 140z" />
<glyph unicode="H" horiz-adv-x="817" d="M-52 720q0 57 80 80q80 0 112 -172q60 -183 68 -188h4q277 77 428 80l-16 356q0 116 84 116t84 -180q11 -312 24 -312l-4 -52q8 -268 24 -368q0 -60 -84 -80q-77 0 -88 124l-12 228h-4q-364 -30 -400 -84l32 -148q0 -60 -84 -80q-77 0 -100 164q-6 21 -48 44 q-24 28 -24 56v8q0 15 24 68v4q-100 314 -100 336z" />
<glyph unicode="I" horiz-adv-x="502" d="M-127 488q0 70 112 100q390 96 516 120h16q53 0 72 -80q0 -84 -160 -96l-116 -32l32 -220l132 8q89 0 112 -68v-20q-16 -80 -80 -80l-48 4q-329 -20 -460 -56h-4q-84 13 -84 80q0 78 196 108l72 12q-17 188 -36 188l-192 -44q-76 16 -76 76h-4z" />
<glyph unicode="J" horiz-adv-x="621" d="M7 672v4q0 69 204 124q330 92 360 92h4q100 0 100 -80h4q-7 -33 -36 -76q-28 -106 -64 -340q-39 -174 -88 -256q-81 -140 -216 -140q-83 16 -140 64q-112 129 -112 188v4q15 92 64 92h4q64 0 120 -124q40 -56 76 -56h16q23 0 68 100q58 152 92 428h-4q-54 0 -368 -108h-8 q-66 0 -76 84z" />
<glyph unicode="K" horiz-adv-x="682" d="M-75 704q19 88 84 88h4q88 0 88 -140q36 -136 52 -136q132 241 132 308q30 108 96 108h4q61 0 76 -80q-33 -159 -80 -252v-8q228 168 256 168h8q63 0 80 -84q0 -13 -28 -72q-20 -110 -20 -220v-56q0 -110 48 -244v-4q0 -65 -84 -80q-109 0 -132 344l4 124h4l-8 12 q-114 -86 -236 -160v-8q92 -108 92 -144v-4q-16 -80 -80 -80h-4q-61 0 -144 144q-191 255 -212 476z" />
<glyph unicode="L" horiz-adv-x="584" d="M-37 68v16l112 408q36 191 36 324v60q8 92 80 92t84 -120v-56q0 -215 -100 -560q136 45 348 88l-32 124q0 71 88 80q86 0 120 -252q0 -39 -80 -96q-289 -61 -400 -108q-17 0 -124 -64l-40 -4q-70 0 -92 68z" />
<glyph unicode="M" horiz-adv-x="937" d="M-22 172l28 328l-12 176q0 68 100 88q91 0 312 -384l32 -44h4q12 8 76 124l260 356q17 12 68 20q84 -21 84 -84q24 -138 24 -364v-60q0 -112 28 -248q0 -67 -88 -80q-55 0 -80 72q-28 137 -28 464h-4q-123 -143 -228 -340q-32 -92 -100 -92q-86 0 -244 288q-31 51 -40 52 q-12 -66 -24 -296q-32 -56 -92 -56q-56 0 -76 80z" />
<glyph unicode="N" horiz-adv-x="607" d="M-142 652q22 96 88 96q24 0 96 -48q142 -65 488 -264h8v4q-28 228 -28 404q0 54 80 72q88 0 88 -172q0 -160 48 -424v-24q0 -51 -76 -96q-24 -3 -24 -8q-28 0 -192 112l-296 164v-16q136 -299 136 -320q-20 -80 -88 -80h-4q-59 0 -112 156q-152 356 -204 408z" />
<glyph unicode="O" horiz-adv-x="734" d="M-30 424v12q0 276 304 488q116 56 208 56q136 0 244 -156q34 -64 48 -192q0 -159 -116 -380q-84 -156 -308 -232q-61 -20 -96 -20h-8q-182 0 -240 192q-36 144 -36 232zM134 424q0 -132 56 -244q16 -16 44 -16q134 0 264 136q108 189 108 308v24q0 138 -96 180l-36 4 q-154 0 -300 -216q-40 -85 -40 -176z" />
<glyph unicode="P" horiz-adv-x="652" d="M-45 756q0 66 84 76h4q20 0 60 -36q305 92 492 92q64 0 132 -68l12 -44v-28q0 -124 -292 -364l-180 -96v-4q64 -183 64 -208q0 -61 -84 -76q-76 0 -116 180q-171 488 -176 576zM151 640q56 -196 68 -196q175 63 328 268v8q-140 0 -396 -80z" />
<glyph unicode="Q" horiz-adv-x="772" d="M-37 468v8q0 54 36 180q0 63 140 192q92 83 316 120l16 -4l24 4q93 -18 140 -60q132 -130 132 -348q0 -99 -104 -248q-7 0 -8 -20q79 -107 144 -180q0 -28 8 -28q-20 -84 -84 -84q-52 0 -184 172h-8q-146 -116 -268 -116q-254 0 -300 412zM127 476q30 -252 116 -252h40 q70 8 144 76l4 12q-144 149 -144 188l-4 12q18 80 76 80q47 0 140 -116l44 -44q60 62 60 156q-14 177 -104 212h-40q-129 0 -252 -104q-48 -46 -48 -92q-32 -76 -32 -128z" />
<glyph unicode="R" horiz-adv-x="667" d="M-105 606q0 97 388 272q31 16 88 24q104 0 124 -60l16 -68l-32 -128l4 -4h4q110 68 140 68q77 0 100 -104q3 -233 60 -528l28 -84q-16 -84 -80 -84h-8q-92 0 -124 272q-16 61 -36 312h-12q-215 -146 -288 -224q64 -128 64 -152v-8q0 -67 -84 -80q-64 0 -104 124 q-107 199 -232 360zM71 574l100 -140h12q117 152 144 280v4h-4q-119 -45 -252 -140v-4z" />
<glyph unicode="S" horiz-adv-x="630" d="M-82 826q18 75 88 124q89 41 176 44q117 0 236 -80v4l-24 84q15 88 84 88v4q85 0 112 -192q45 -180 96 -240q12 0 16 -44q0 -71 -92 -80q-33 0 -92 76q-238 208 -276 208l-40 4h-36q-61 0 -80 -24v-8q49 -76 168 -108q288 -112 400 -220q60 -85 60 -172q-12 -79 -52 -132 q-172 -140 -320 -140q-170 0 -308 208q-80 159 -80 276q0 51 80 72q76 0 88 -128q40 -159 124 -224q54 -36 84 -36h36q180 48 180 104v20q0 94 -440 252q-188 108 -188 260z" />
<glyph unicode="T" horiz-adv-x="674" d="M-75 520q0 62 104 100l48 -4l328 180q57 32 260 88q80 -16 80 -80v-4q0 -76 -164 -108q-180 -68 -180 -92q84 -171 132 -372l28 -148q0 -65 -84 -80q-85 0 -100 184q-52 209 -116 324l-12 8h-4q-171 -88 -228 -88q-71 8 -92 92z" />
<glyph unicode="U" horiz-adv-x="779" d="M-60 100q156 661 156 852q34 72 80 72q68 0 80 -92v-4q0 -184 -128 -748v-4q302 29 512 68q-80 189 -120 528q-12 53 -20 160q0 55 80 76q68 0 84 -92q48 -384 104 -556q68 -128 68 -172q0 -102 -352 -136l-436 -52q-108 29 -108 100z" />
<glyph unicode="V" horiz-adv-x="712" d="M-67 856q19 88 84 88t236 -240l216 -268h4l88 500q28 44 80 44q58 0 72 -76h4l-108 -668v-20l40 -136q0 -60 -84 -80q-81 0 -128 180q-108 184 -428 572q0 8 -64 56z" />
<glyph unicode="W" horiz-adv-x="907" d="M-75 503q10 84 76 84v4q72 0 108 -140q73 -157 88 -168q27 34 52 260q10 152 92 152h12q64 0 96 -152q125 -292 224 -416l4 -4h4q71 97 132 320q20 75 40 200q31 44 76 44q55 0 80 -72v-4q0 -123 -120 -456q-106 -208 -184 -208q-143 0 -240 200q-50 78 -80 148h-12 q-26 -140 -96 -208q-23 -20 -56 -28q-93 25 -120 68q-154 243 -176 376z" />
<glyph unicode="X" horiz-adv-x="667" d="M-67 84v4q0 70 228 288q-101 119 -172 240q-36 26 -36 64q0 63 92 80q66 0 128 -136q69 -99 120 -144q129 94 356 288l28 4q84 -15 84 -80q0 -52 -132 -148l-212 -176q6 -17 144 -116q40 -63 40 -84q0 -50 -68 -64q-64 0 -244 152h-12q-160 -132 -208 -232 q-29 -24 -60 -24q-66 0 -76 84z" />
<glyph unicode="Y" horiz-adv-x="704" d="M-30 308q16 68 44 68l36 4q45 -10 156 -116q103 -87 204 -96h40q101 0 188 204l16 92h-8q-110 -132 -264 -132q-125 0 -236 124q-67 102 -148 344q20 84 84 84h8q75 0 108 -164q75 -220 172 -220h44q117 0 184 260l4 48l-12 84q21 96 88 96h4q84 0 84 -148 q52 -230 52 -364h4l-4 -4v-20q0 -142 -124 -312q-120 -140 -264 -140q-222 0 -440 252z" />
<glyph unicode="Z" horiz-adv-x="929" d="M-15 568q0 76 112 84q504 98 504 156q83 104 140 104t80 -80q0 -49 -92 -144q-41 -25 -156 -200q-51 -87 -156 -216v-4h4l168 4l164 -8h44v4l-44 168q21 84 84 84q80 0 104 -164q20 -42 32 -120q-27 -120 -92 -120q0 -11 -56 -16h-88l-140 8q-381 0 -428 -72 q-32 -29 -72 -36q-80 20 -80 80v8q0 56 112 124q237 234 288 332v8q-277 -60 -336 -60q-96 9 -96 76z" />
<glyph unicode="[" horiz-adv-x="360" d="M0 205q0 85 52 416q20 172 20 340l-4 56q0 90 64 116l52 16q148 -14 148 -52q9 0 12 -36v-4q0 -72 -108 -84v-36q0 -246 -68 -656h4q21 0 112 28q84 -20 84 -84q0 -79 -148 -100l-92 -28q-116 7 -116 52q-12 21 -12 56z" />
<glyph unicode="\" horiz-adv-x="569" d="M-30 1019q0 62 80 76q73 0 272 -332q216 -355 312 -592v-12q-12 -84 -84 -84q-66 0 -100 120q-208 425 -468 784q-8 0 -12 40z" />
<glyph unicode="]" horiz-adv-x="292" d="M-15 233q0 72 88 84l32 -8l4 4l-8 160v276l4 188q-116 8 -116 76v8q13 80 100 80l92 28q67 0 88 -100l-4 -364v-216q0 -146 24 -256q0 -75 -112 -96q-101 14 -184 104z" />
<glyph unicode="^" horiz-adv-x="704" d="M-30 674v4q0 57 220 360q71 100 112 100q152 0 256 -240q31 -51 148 -308q52 -92 52 -120q0 -65 -84 -80q-69 0 -132 172q-137 291 -200 388l-4 4h-4q-170 -205 -196 -312q-50 -48 -88 -48q-80 16 -80 80z" />
<glyph unicode="_" horiz-adv-x="854" d="M-15 54v16q0 80 120 80q69 0 708 116q60 0 80 -84q0 -76 -104 -84q-594 -112 -676 -112h-36q-70 0 -92 68z" />
<glyph unicode="`" horiz-adv-x="210" d="M-22 1013q0 66 84 76h4q55 0 100 -148q60 -84 60 -112q-17 -80 -80 -80q-68 0 -140 164q-28 79 -28 100z" />
<glyph unicode="a" horiz-adv-x="652" d="M-45 268q0 390 156 636q76 80 132 80h28q143 0 284 -276l72 -224q65 0 96 -72q0 -42 -64 -88v-4q24 -194 24 -244q0 -65 -88 -76q-67 0 -76 96l-24 196h-4q-80 0 -360 -112v-8l20 -60q-16 -76 -76 -76v-4q-92 0 -116 188zM119 356h4q129 45 340 100q-53 208 -104 276 q-63 88 -96 88q-62 0 -128 -324q-12 -56 -16 -140z" />
<glyph unicode="b" horiz-adv-x="764" d="M-97 840q0 69 176 140q90 20 140 20q284 -10 352 -148q8 -16 8 -44v-28q0 -37 -64 -116v-8h72q207 0 272 -176v-44q0 -127 -216 -292q-240 -144 -492 -144h-20q-116 0 -168 76l-4 24q0 46 64 84v8q0 63 -108 552zM71 792q0 -56 52 -240h4q198 149 276 228l4 20 q-57 36 -184 36h-12q-140 -8 -140 -44zM159 364l36 -196q237 0 448 184q52 70 52 92q0 48 -120 48h-24q-256 0 -392 -128z" />
<glyph unicode="c" horiz-adv-x="637" d="M-150 356q0 223 220 368q112 60 212 60q59 0 156 -40q44 36 72 36q61 0 120 -148q80 -119 80 -144q-20 -84 -84 -84q-47 0 -120 100q-144 112 -200 112h-52q-119 0 -212 -144q-24 -58 -24 -76v-48q0 -94 172 -176l72 -8h8q164 0 308 100l28 4q65 0 80 -84 q0 -76 -228 -156q-107 -28 -196 -28q-215 0 -364 208q-36 57 -48 148z" />
<glyph unicode="d" horiz-adv-x="757" d="M-97 208q0 54 80 72h4q41 0 68 -40h4v12q-32 199 -124 600q0 88 100 88h16q39 0 152 -96q323 -231 516 -284q168 -40 168 -84l16 -44q0 -60 -88 -92q-119 -149 -240 -208q-217 -132 -416 -132q-174 0 -240 136zM139 676l104 -496l12 -4q265 68 404 228q-236 89 -428 224 l-80 56h-8v-8h-4z" />
<glyph unicode="e" horiz-adv-x="652" d="M-75 404q0 253 216 416q75 48 160 48q127 0 260 -152q64 -92 64 -160q-7 -68 -56 -136q-80 -76 -304 -76q-73 0 -172 32v-12q0 -133 120 -192l56 -8h20q159 11 376 200l36 4q60 0 72 -80q0 -84 -264 -224q-121 -64 -236 -64q-251 0 -336 288q-12 62 -12 116zM125 552 q42 -44 148 -44q184 0 184 40v12q0 70 -132 140l-32 4q-100 0 -168 -152z" />
<glyph unicode="f" horiz-adv-x="517" d="M-90 360v4q0 49 68 80l4 4v12q-36 133 -36 220q0 121 112 228q71 52 180 52q111 -12 256 -112q88 -66 88 -120v-4q0 -51 -80 -72q-34 0 -128 84q-101 60 -156 60h-12q-84 0 -96 -132q14 -146 36 -160l220 72h8q80 -15 80 -80q0 -73 -152 -108q-13 -11 -92 -36l-8 -12 l124 -244v-16q-16 -80 -80 -80h-4q-71 0 -156 208q-37 83 -44 84l-68 -4q-64 20 -64 72z" />
<glyph unicode="g" horiz-adv-x="772" d="M-82 384v12q0 181 196 340q166 120 336 120q147 0 188 -100v-16q0 -62 -80 -76q-15 0 -64 24l-40 4q-210 0 -344 -196q-28 -67 -28 -108q0 -96 120 -96h36q84 0 332 104v8l-72 -4q-58 0 -72 76v4q0 92 212 92l112 4v4l4 -4h36q84 -20 84 -80l-60 -356q0 -140 -88 -140 q-80 15 -80 80h-4l4 4v24l20 152h-8q-297 -136 -444 -136q-227 14 -284 188z" />
<glyph unicode="h" horiz-adv-x="697" d="M-120 208q0 80 180 116v12q-96 273 -96 324l-4 4v4q24 80 80 80q76 0 92 -124q48 -120 92 -260h4q23 0 308 84l-72 412q0 67 84 80q76 0 88 -120l80 -404q38 -261 72 -332v-4q0 -57 -76 -80h-4q-96 0 -136 284h-8q-276 -72 -288 -84v-4l20 -96q0 -56 -84 -72 q-75 0 -100 136h-8l-144 -36q-80 15 -80 80z" />
<glyph unicode="i" horiz-adv-x="255" d="M-37 404v4q0 43 76 96q46 111 80 112l28 4q57 0 80 -76q-16 -83 -16 -152v-40q0 -96 28 -272q0 -65 -80 -76v-4q-85 0 -96 160l-20 168q-80 15 -80 76zM95 732q17 143 48 164q0 12 52 28q80 -20 80 -80q-17 -176 -56 -176q0 -6 -40 -16q-80 17 -80 80h-4z" />
<glyph unicode="j" horiz-adv-x="525" d="M-52 356q16 80 80 80q68 0 92 -108q111 -160 172 -160h16q92 84 92 288q0 126 -36 316q18 108 88 108v4q80 -17 80 -80h4l-8 -44q36 -158 36 -260v-48q0 -306 -184 -432l-64 -20q-197 0 -352 284zM332 1036q21 76 76 76h8q69 0 84 -116q0 -64 -80 -76q-70 0 -88 116z" />
<glyph unicode="k" horiz-adv-x="899" d="M-37 696q21 84 84 84q79 0 144 -232q44 -100 52 -100h4q136 237 136 296q71 240 92 240q15 20 52 20q88 -16 88 -84q-32 -72 -88 -272l-84 -192v-4q424 9 424 24q84 -19 84 -84q0 -92 -168 -92q-436 -13 -436 -36t116 -152l4 -32q0 -64 -84 -80q-54 0 -164 152h-8l-36 -8 q-100 19 -100 92q0 18 44 84v4q-61 111 -156 372z" />
<glyph unicode="l" horiz-adv-x="524" d="M-105 88v4q0 31 56 96q88 227 88 628q26 64 80 64q60 0 84 -88q0 -239 -44 -480v-4q84 24 280 52q12 84 76 84h4q64 0 112 -136q0 -112 -348 -136q-167 -40 -216 -104q-26 -60 -96 -60q-59 0 -76 80z" />
<glyph unicode="m" horiz-adv-x="906" d="M-31 168v384q0 71 76 92h4q73 0 300 -312l40 -52h8q56 286 56 528q22 108 96 108q81 0 212 -256q64 -108 232 -468v-16q0 -72 -88 -80q-60 0 -124 168q-142 291 -168 320h-4l-80 -532q-42 -52 -92 -52q-76 0 -248 280l-52 60h-4v-144q-13 -124 -84 -124q-72 0 -80 96z " />
<glyph unicode="n" horiz-adv-x="682" d="M-37 616q22 76 84 76q49 0 248 -196l244 -204h8v448q9 92 84 92q70 0 80 -92v-248l8 -420q0 -54 -80 -72h-4q-46 0 -108 84l-320 272h-8q16 -82 24 -192q-26 -96 -88 -96h-4q-65 0 -76 88l4 20q0 94 -92 400z" />
<glyph unicode="o" horiz-adv-x="614" d="M-60 403l4 4v24l12 64l-4 56q107 296 372 296h44q141 0 256 -164q44 -69 44 -188q0 -154 -160 -300q-158 -112 -300 -112q-210 0 -264 276v40zM108 387q18 -136 80 -136h48q98 0 212 112q56 70 56 148q0 120 -108 164q-16 8 -44 8h-52q-120 -24 -120 -64 q-57 -115 -72 -188v-44z" />
<glyph unicode="p" horiz-adv-x="750" d="M-52 864v8q0 24 60 120q24 24 56 24q37 0 76 -52l28 4h28q445 0 540 -60q44 -41 44 -112q0 -79 -212 -264q-101 -78 -256 -152v-4q60 -185 104 -248l8 -40q-19 -88 -84 -88q-77 0 -140 208q-41 113 -48 116h-4l-16 -4q-80 20 -80 80v4q0 41 52 76v4q-79 308 -104 308 q-52 24 -52 72zM184 800q67 -243 80 -256q108 25 296 200q28 29 28 40h-4q-187 20 -396 20z" />
<glyph unicode="q" horiz-adv-x="644" d="M-90 354q4 94 60 216l-4 56q20 95 144 208q156 112 276 112h24q149 0 248 -172q44 -106 44 -172q0 -127 -108 -304v-8q165 -267 172 -300v-8q0 -68 -84 -80q-59 0 -124 136q-60 106 -84 132q-191 -156 -324 -156h-20q-110 0 -164 104q-56 91 -56 236zM78 330 q5 -134 48 -152h8q105 0 236 120l4 4v4q-51 76 -84 76q-36 34 -36 72q0 52 84 88h16q44 0 124 -104h4q26 0 56 164q0 111 -96 172l-40 8q-133 0 -248 -136q1 -40 8 -40q0 -14 -60 -140q-24 -47 -24 -108v-28z" />
<glyph unicode="r" horiz-adv-x="779" d="M-60 748q0 46 72 108q312 72 440 72q253 0 296 -164q8 -16 8 -44v-12q0 -138 -236 -360v-4l16 -4l168 8q63 0 76 -88q0 -80 -140 -80l-144 -4h-76q-28 -1 -28 -8q52 -59 52 -88q-17 -80 -80 -80h-8q-55 0 -152 144q-32 16 -48 92q-81 148 -200 468q-12 0 -16 44zM128 708 q121 -313 152 -348h4q289 234 304 344v16q0 44 -140 44q-320 -32 -320 -56z" />
<glyph unicode="s" horiz-adv-x="861" d="M-15 456q0 116 84 116t84 -164q23 -94 36 -192h4q93 36 240 56v4q-114 81 -172 136q-169 180 -204 292q-36 97 -36 136v28l-4 4q17 86 56 116q68 48 152 48q261 0 448 -212q164 -221 164 -320h4q-20 -84 -84 -84q-70 0 -88 112q-172 336 -408 336h-68l-8 -8v-8 q7 -117 160 -296q181 -169 368 -236q65 -29 152 -48q36 -35 36 -68v-4q-16 -80 -80 -80h-156q-353 0 -528 -108l-44 -12q-80 19 -80 80l8 116q0 50 -36 260z" />
<glyph unicode="t" horiz-adv-x="839" d="M-67 656q0 92 168 92l624 104h52q104 0 104 -92q-20 -72 -80 -72q-159 0 -340 -52q0 -43 136 -556v-4q0 -66 -84 -76q-77 0 -112 196q-100 355 -100 416l-288 -40q-64 0 -80 84z" />
<glyph unicode="u" horiz-adv-x="659" d="M-37 211v12q0 39 88 244q46 268 88 268l40 12q59 0 76 -80q-39 -264 -128 -440v-12q48 -50 276 -88l64 -4h32q24 0 24 120v36q0 119 -52 348q0 61 84 80q77 0 96 -176q36 -144 36 -280q0 -209 -100 -268q-33 -20 -96 -28q-528 47 -528 256z" />
<glyph unicode="v" horiz-adv-x="607" d="M-104 702q16 80 80 80t144 -192l168 -288h8q97 184 288 396q45 84 96 84h8q64 0 76 -80q0 -41 -176 -244q-216 -301 -216 -420q-25 -68 -84 -68q-71 0 -80 92q0 65 -252 496q-60 115 -60 144z" />
<glyph unicode="w" horiz-adv-x="907" d="M-67 428q0 65 84 92h4q62 0 92 -104q71 -119 164 -220h12l8 92q0 68 -24 220q0 71 92 80q51 0 128 -156q131 -191 236 -236h8q28 107 28 240q0 320 -108 460l-4 28q15 80 80 80q104 0 176 -308q20 -114 20 -232v-52q0 -228 -76 -340q-28 -31 -108 -48q-95 10 -216 112 l-68 68q-10 -13 -32 -104q-45 -100 -136 -100q-48 0 -160 108q-200 266 -200 320z" />
<glyph unicode="x" horiz-adv-x="786" d="M-60 784q15 84 84 84q55 0 192 -184l160 -176q174 160 248 272q45 80 96 80q63 0 80 -84q0 -72 -308 -388v-8q252 -263 252 -272l4 -28q-10 -80 -80 -80h-8q-41 0 -180 160l-112 112q-79 -66 -200 -232q-16 -13 -52 -24q-80 17 -80 80h-4q5 56 220 300q-230 274 -240 276 q-39 0 -72 112z" />
<glyph unicode="y" horiz-adv-x="810" d="M-7 356q0 54 80 72q54 0 116 -116q122 -148 324 -148q130 0 172 72q32 68 32 136q-17 179 -40 192q-110 -180 -296 -180q-128 0 -252 108q-124 153 -124 292q0 92 76 92v4q73 0 84 -112q11 -93 104 -184q60 -32 88 -32h64q96 0 184 240l8 68l-20 140v12q7 88 84 88 q79 0 92 -124q12 -124 92 -444l20 -144q0 -324 -280 -380l-76 -8h-28q-182 0 -348 124q-156 158 -156 232z" />
<glyph unicode="z" horiz-adv-x="802" d="M-37 88q0 37 80 112l304 368l36 52v4h-4q-36 0 -244 -120l-48 -16q-84 20 -84 84q0 62 112 104q104 72 340 156l152 44q84 -23 84 -84q0 -32 -104 -152q-79 -153 -332 -436v-4l4 -4v-4l48 4h240l176 -8v4q-64 186 -64 208v8q0 64 80 76q72 0 104 -156q100 -220 100 -232 q0 -66 -100 -88q-153 24 -380 24q-324 0 -420 -32q-66 0 -80 88z" />
<glyph unicode="{" horiz-adv-x="457" d="M-23 619q0 55 88 108l20 4l24 -4q23 42 44 264q45 188 176 188q59 0 76 -80q0 -48 -76 -84q-27 -84 -44 -268q-20 -87 -52 -136v-16q40 -45 136 -300q76 0 104 -52l8 -32q0 -73 -100 -84h-8q-144 0 -212 264q-45 124 -84 124q-74 0 -100 104z" />
<glyph unicode="|" horiz-adv-x="172" d="M0 238l16 488v188q10 136 64 136l20 8q71 0 80 -96v-216l-16 -508q0 -68 -84 -80q-80 15 -80 80z" />
<glyph unicode="}" horiz-adv-x="390" d="M-23 175q0 68 84 80l48 -12h12q68 0 68 68q0 32 -56 144q-8 16 -8 44v20q0 30 28 84l-40 64l-4 24v36q0 23 36 152v4q0 49 -84 72q-36 33 -36 64v4q11 72 72 72h20q88 0 160 -100q32 -50 32 -120l-36 -152q8 -12 100 -32q52 -38 52 -84q0 -76 -128 -92l-8 -12 q64 -120 64 -188v-12q0 -154 -168 -212q-20 -11 -96 -16q-112 35 -112 100z" />
<glyph unicode="~" horiz-adv-x="846" d="M-52 545q0 60 84 124q84 138 208 260q18 16 56 16h8q101 0 120 -136l32 -208h4q105 88 208 88q196 -28 196 -92l4 -16v-8q0 -57 -76 -80h-4q-93 32 -132 32q-52 0 -144 -104q-52 -32 -96 -32q-36 0 -96 80q-28 97 -44 252h-4q-9 0 -160 -208q-48 -52 -84 -52 q-65 0 -80 84z" />
<glyph unicode="&#xa1;" horiz-adv-x="682" />
<glyph unicode="&#xa2;" />
<glyph unicode="&#xa3;" />
<glyph unicode="&#xa4;" />
<glyph unicode="&#xa5;" />
<glyph unicode="&#xa6;" horiz-adv-x="532" />
<glyph unicode="&#xa7;" />
<glyph unicode="&#xa8;" horiz-adv-x="682" />
<glyph unicode="&#xa9;" horiz-adv-x="1509" />
<glyph unicode="&#xaa;" horiz-adv-x="758" />
<glyph unicode="&#xab;" />
<glyph unicode="&#xac;" horiz-adv-x="1196" />
<glyph unicode="&#xad;" horiz-adv-x="457" d="M15 563q0 87 192 104q147 32 184 32q50 0 72 -80q0 -75 -120 -88l-248 -52q-64 0 -80 84z" />
<glyph unicode="&#xae;" horiz-adv-x="1509" />
<glyph unicode="&#xaf;" horiz-adv-x="1131" />
<glyph unicode="&#xb0;" horiz-adv-x="819" />
<glyph unicode="&#xb1;" horiz-adv-x="1124" />
<glyph unicode="&#xb2;" horiz-adv-x="682" />
<glyph unicode="&#xb3;" horiz-adv-x="682" />
<glyph unicode="&#xb4;" horiz-adv-x="682" />
<glyph unicode="&#xb5;" horiz-adv-x="1180" />
<glyph unicode="&#xb6;" horiz-adv-x="1100" />
<glyph unicode="&#xb7;" horiz-adv-x="569" />
<glyph unicode="&#x2219;" horiz-adv-x="569" />
<glyph unicode="&#xb8;" horiz-adv-x="682" />
<glyph unicode="&#xb9;" horiz-adv-x="682" />
<glyph unicode="&#xba;" horiz-adv-x="748" />
<glyph unicode="&#xbb;" />
<glyph unicode="&#xbc;" horiz-adv-x="1708" />
<glyph unicode="&#xbd;" horiz-adv-x="1708" />
<glyph unicode="&#xbe;" horiz-adv-x="1708" />
<glyph unicode="&#xbf;" horiz-adv-x="1251" />
<glyph unicode="&#xc0;" horiz-adv-x="1366" />
<glyph unicode="&#xc1;" horiz-adv-x="1366" />
<glyph unicode="&#xc2;" horiz-adv-x="1366" />
<glyph unicode="&#xc3;" horiz-adv-x="1366" />
<glyph unicode="&#xc4;" horiz-adv-x="1366" />
<glyph unicode="&#xc5;" horiz-adv-x="1366" />
<glyph unicode="&#xc6;" horiz-adv-x="2048" />
<glyph unicode="&#xc7;" horiz-adv-x="1479" />
<glyph unicode="&#xc8;" horiz-adv-x="1366" />
<glyph unicode="&#xc9;" horiz-adv-x="1366" />
<glyph unicode="&#xca;" horiz-adv-x="1366" />
<glyph unicode="&#xcb;" horiz-adv-x="1366" />
<glyph unicode="&#xcc;" horiz-adv-x="569" />
<glyph unicode="&#xcd;" horiz-adv-x="569" />
<glyph unicode="&#xce;" horiz-adv-x="569" />
<glyph unicode="&#xcf;" horiz-adv-x="569" />
<glyph unicode="&#xd0;" horiz-adv-x="1479" />
<glyph unicode="&#xd1;" horiz-adv-x="1479" />
<glyph unicode="&#xd2;" horiz-adv-x="1593" />
<glyph unicode="&#xd3;" horiz-adv-x="1593" />
<glyph unicode="&#xd4;" horiz-adv-x="1593" />
<glyph unicode="&#xd5;" horiz-adv-x="1593" />
<glyph unicode="&#xd6;" horiz-adv-x="1593" />
<glyph unicode="&#xd7;" horiz-adv-x="1196" />
<glyph unicode="&#xd8;" horiz-adv-x="1593" />
<glyph unicode="&#xd9;" horiz-adv-x="1479" />
<glyph unicode="&#xda;" horiz-adv-x="1479" />
<glyph unicode="&#xdb;" horiz-adv-x="1479" />
<glyph unicode="&#xdc;" horiz-adv-x="1479" />
<glyph unicode="&#xdd;" horiz-adv-x="1366" />
<glyph unicode="&#xde;" horiz-adv-x="1366" />
<glyph unicode="&#xdf;" horiz-adv-x="1251" />
<glyph unicode="&#xe0;" />
<glyph unicode="&#xe1;" />
<glyph unicode="&#xe2;" />
<glyph unicode="&#xe3;" />
<glyph unicode="&#xe4;" />
<glyph unicode="&#xe5;" />
<glyph unicode="&#xe6;" horiz-adv-x="1821" />
<glyph unicode="&#xe7;" horiz-adv-x="1024" />
<glyph unicode="&#xe8;" />
<glyph unicode="&#xe9;" />
<glyph unicode="&#xea;" />
<glyph unicode="&#xeb;" />
<glyph unicode="&#xec;" horiz-adv-x="569" />
<glyph unicode="&#xed;" horiz-adv-x="569" />
<glyph unicode="&#xee;" horiz-adv-x="569" />
<glyph unicode="&#xef;" horiz-adv-x="569" />
<glyph unicode="&#xf0;" />
<glyph unicode="&#xf1;" />
<glyph unicode="&#xf2;" />
<glyph unicode="&#xf3;" />
<glyph unicode="&#xf4;" />
<glyph unicode="&#xf5;" />
<glyph unicode="&#xf6;" />
<glyph unicode="&#xf7;" horiz-adv-x="1124" />
<glyph unicode="&#xf8;" horiz-adv-x="1251" />
<glyph unicode="&#xf9;" />
<glyph unicode="&#xfa;" />
<glyph unicode="&#xfb;" />
<glyph unicode="&#xfc;" />
<glyph unicode="&#xfd;" horiz-adv-x="1024" />
<glyph unicode="&#xfe;" />
<glyph unicode="&#xff;" horiz-adv-x="1024" />
<glyph unicode="&#x152;" horiz-adv-x="2048" />
<glyph unicode="&#x153;" horiz-adv-x="1933" />
<glyph unicode="&#x178;" horiz-adv-x="1366" />
<glyph unicode="&#x2c6;" horiz-adv-x="682" />
<glyph unicode="&#x2dc;" horiz-adv-x="682" />
<glyph unicode="&#x2013;" />
<glyph unicode="&#x2014;" horiz-adv-x="2048" />
<glyph unicode="&#x2018;" horiz-adv-x="455" />
<glyph unicode="&#x2019;" horiz-adv-x="455" />
<glyph unicode="&#x201a;" horiz-adv-x="455" />
<glyph unicode="&#x201c;" horiz-adv-x="682" />
<glyph unicode="&#x201d;" horiz-adv-x="682" />
<glyph unicode="&#x201e;" horiz-adv-x="682" />
<glyph unicode="&#x2022;" horiz-adv-x="717" />
<glyph unicode="&#x2026;" horiz-adv-x="2048" />
<glyph unicode="&#x2039;" horiz-adv-x="682" />
<glyph unicode="&#x203a;" horiz-adv-x="682" />
<glyph unicode="&#x20ac;" />
<glyph unicode="&#x2122;" horiz-adv-x="2048" />
<glyph unicode="&#xe000;" horiz-adv-x="870" d="M0 870h870v-870h-870v870z" />
<glyph unicode="&#xf001;" horiz-adv-x="1024" />
<glyph unicode="&#xfb01;" horiz-adv-x="1024" />
<glyph unicode="&#xf002;" horiz-adv-x="1024" />
<glyph unicode="&#xfb02;" horiz-adv-x="1024" />
<glyph unicode="&#xfb03;" horiz-adv-x="1289" d="M997 404v4q0 43 76 96q46 111 80 112l28 4q57 0 80 -76q-16 -83 -16 -152v-40q0 -96 28 -272q0 -65 -80 -76v-4q-85 0 -96 160l-20 168q-80 15 -80 76zM1129 732q17 143 48 164q0 12 52 28q80 -20 80 -80q-17 -176 -56 -176q0 -6 -40 -16q-80 17 -80 80h-4zM427 360v4 q0 49 68 80l4 4v12q-36 133 -36 220q0 121 112 228q71 52 180 52q111 -12 256 -112q88 -66 88 -120v-4q0 -51 -80 -72q-34 0 -128 84q-101 60 -156 60h-12q-84 0 -96 -132q14 -146 36 -160l220 72h8q80 -15 80 -80q0 -73 -152 -108q-13 -11 -92 -36l-8 -12l124 -244v-16 q-16 -80 -80 -80h-4q-71 0 -156 208q-37 83 -44 84l-68 -4q-64 20 -64 72zM-90 360v4q0 49 68 80l4 4v12q-36 133 -36 220q0 121 112 228q71 52 180 52q111 -12 256 -112q88 -66 88 -120v-4q0 -51 -80 -72q-34 0 -128 84q-101 60 -156 60h-12q-84 0 -96 -132 q14 -146 36 -160l220 72h8q80 -15 80 -80q0 -73 -152 -108q-13 -11 -92 -36l-8 -12l124 -244v-16q-16 -80 -80 -80h-4q-71 0 -156 208q-37 83 -44 84l-68 -4q-64 20 -64 72z" />
<glyph unicode="&#xfb04;" horiz-adv-x="1558" d="M929 88v4q0 31 56 96q88 227 88 628q26 64 80 64q60 0 84 -88q0 -239 -44 -480v-4q84 24 280 52q12 84 76 84h4q64 0 112 -136q0 -112 -348 -136q-167 -40 -216 -104q-26 -60 -96 -60q-59 0 -76 80zM427 360v4q0 49 68 80l4 4v12q-36 133 -36 220q0 121 112 228 q71 52 180 52q111 -12 256 -112q88 -66 88 -120v-4q0 -51 -80 -72q-34 0 -128 84q-101 60 -156 60h-12q-84 0 -96 -132q14 -146 36 -160l220 72h8q80 -15 80 -80q0 -73 -152 -108q-13 -11 -92 -36l-8 -12l124 -244v-16q-16 -80 -80 -80h-4q-71 0 -156 208q-37 83 -44 84 l-68 -4q-64 20 -64 72zM-90 360v4q0 49 68 80l4 4v12q-36 133 -36 220q0 121 112 228q71 52 180 52q111 -12 256 -112q88 -66 88 -120v-4q0 -51 -80 -72q-34 0 -128 84q-101 60 -156 60h-12q-84 0 -96 -132q14 -146 36 -160l220 72h8q80 -15 80 -80q0 -73 -152 -108 q-13 -11 -92 -36l-8 -12l124 -244v-16q-16 -80 -80 -80h-4q-71 0 -156 208q-37 83 -44 84l-68 -4q-64 20 -64 72z" />
</font>
</defs>
</svg>
